<svg width="95" height="95" viewBox="0 0 95 95" fill="none" xmlns="http://www.w3.org/2000/svg">
<path d="M12.5083 76.7521C14.53 78.7748 16.9305 80.3793 19.5725 81.474C22.2145 82.5688 25.0463 83.1322 27.9062 83.1322C30.766 83.1322 33.5979 82.5688 36.2399 81.474C38.8819 80.3793 41.2824 78.7748 43.3041 76.7521L47.4999 72.5562L51.6958 76.7521C55.7796 80.8359 61.3183 83.1301 67.0937 83.1301C72.869 83.1301 78.4078 80.8359 82.4916 76.7521C86.5754 72.6683 88.8696 67.1295 88.8696 61.3542C88.8696 55.5788 86.5754 50.04 82.4916 45.9562L47.4999 10.9646L12.5083 45.9562C10.4856 47.978 8.88104 50.3784 7.78632 53.0205C6.69159 55.6625 6.12813 58.4943 6.12813 61.3542C6.12813 64.214 6.69159 67.0458 7.78632 69.6879C8.88104 72.3299 10.4856 74.7303 12.5083 76.7521Z" stroke="#87DF2B" stroke-width="7" stroke-linecap="round" stroke-linejoin="round"/>
</svg>
