<svg width="119" height="119" viewBox="0 0 119 119" fill="none" xmlns="http://www.w3.org/2000/svg">
<path d="M59.5 103.195L32.0742 79.0234C20.918 69.2617 19.0586 53.457 26.961 42.7656C35.3282 32.0742 49.7383 32.0742 58.5703 42.3008C67.4024 32.0742 81.8125 32.0742 90.1797 42.7656C98.0821 53.457 96.2227 69.2617 85.0664 79.0234L59.5 103.195Z" stroke="#87DF2B" stroke-width="7" stroke-linejoin="round"/>
<path d="M59.5 103.195V81.8125" stroke="#87DF2B" stroke-linecap="round"/>
<path d="M59.5 83.207C60.2702 83.207 60.8945 82.5827 60.8945 81.8125C60.8945 81.0423 60.2702 80.418 59.5 80.418C58.7298 80.418 58.1055 81.0423 58.1055 81.8125C58.1055 82.5827 58.7298 83.207 59.5 83.207Z" fill="#87DF2B" stroke="#87DF2B" stroke-linecap="round"/>
<path d="M43.6953 69.7266L59.5 81.8125L74.375 69.7266" stroke="#87DF2B" stroke-linecap="round"/>
<path d="M43.6953 71.1211C44.4655 71.1211 45.0898 70.4967 45.0898 69.7266C45.0898 68.9564 44.4655 68.332 43.6953 68.332C42.9251 68.332 42.3008 68.9564 42.3008 69.7266C42.3008 70.4967 42.9251 71.1211 43.6953 71.1211Z" fill="#87DF2B" stroke="#87DF2B" stroke-linecap="round"/>
<path d="M74.375 71.1211C75.1452 71.1211 75.7695 70.4967 75.7695 69.7266C75.7695 68.9564 75.1452 68.332 74.375 68.332C73.6048 68.332 72.9805 68.9564 72.9805 69.7266C72.9805 70.4967 73.6048 71.1211 74.375 71.1211Z" fill="#87DF2B" stroke="#87DF2B" stroke-linecap="round"/>
<path d="M51.1328 52.9922L43.6953 69.7266" stroke="#87DF2B" stroke-linecap="round"/>
<path d="M67.8672 52.9922L74.375 69.7266" stroke="#87DF2B" stroke-linecap="round"/>
<path d="M51.1328 54.1543C51.7746 54.1543 52.2949 53.634 52.2949 52.9922C52.2949 52.3504 51.7746 51.8301 51.1328 51.8301C50.491 51.8301 49.9707 52.3504 49.9707 52.9922C49.9707 53.634 50.491 54.1543 51.1328 54.1543Z" fill="#87DF2B" stroke="#87DF2B" stroke-linecap="round"/>
<path d="M67.8672 54.1543C68.509 54.1543 69.0293 53.634 69.0293 52.9922C69.0293 52.3504 68.509 51.8301 67.8672 51.8301C67.2254 51.8301 66.7051 52.3504 66.7051 52.9922C66.7051 53.634 67.2254 54.1543 67.8672 54.1543Z" fill="#87DF2B" stroke="#87DF2B" stroke-linecap="round"/>
<path d="M45.3142 17.8724C47.1113 17.8724 48.5681 16.4156 48.5681 14.6185C48.5681 12.8215 47.1113 11.3646 45.3142 11.3646C43.5171 11.3646 42.0603 12.8215 42.0603 14.6185C42.0603 16.4156 43.5171 17.8724 45.3142 17.8724Z" stroke="#87DF2B"/>
<path d="M45.3142 15.5482C45.8277 15.5482 46.2439 15.132 46.2439 14.6185C46.2439 14.1051 45.8277 13.6888 45.3142 13.6888C44.8008 13.6888 44.3845 14.1051 44.3845 14.6185C44.3845 15.132 44.8008 15.5482 45.3142 15.5482Z" fill="#87DF2B"/>
<path d="M60.6541 13.6888C62.4511 13.6888 63.908 12.232 63.908 10.4349C63.908 8.63786 62.4511 7.18103 60.6541 7.18103C58.857 7.18103 57.4001 8.63786 57.4001 10.4349C57.4001 12.232 58.857 13.6888 60.6541 13.6888Z" stroke="#87DF2B"/>
<path d="M60.6541 11.3646C61.1675 11.3646 61.5837 10.9484 61.5837 10.4349C61.5837 9.92149 61.1675 9.50525 60.6541 9.50525C60.1406 9.50525 59.7244 9.92149 59.7244 10.4349C59.7244 10.9484 60.1406 11.3646 60.6541 11.3646Z" fill="#87DF2B"/>
<path d="M75.9939 17.8724C77.791 17.8724 79.2478 16.4156 79.2478 14.6185C79.2478 12.8215 77.791 11.3646 75.9939 11.3646C74.1968 11.3646 72.74 12.8215 72.74 14.6185C72.74 16.4156 74.1968 17.8724 75.9939 17.8724Z" stroke="#87DF2B"/>
<path d="M75.9939 15.5482C76.5073 15.5482 76.9236 15.132 76.9236 14.6185C76.9236 14.1051 76.5073 13.6888 75.9939 13.6888C75.4804 13.6888 75.0642 14.1051 75.0642 14.6185C75.0642 15.132 75.4804 15.5482 75.9939 15.5482Z" fill="#87DF2B"/>
</svg>
